<svg width="2000px" height="1279px"
 viewBox="0.00 0.00 838.07 536.33" xmlns="http://www.w3.org/2000/svg" xmlns:xlink="http://www.w3.org/1999/xlink">
<g id="graph0" class="graph" transform="scale(1.0 1.0) rotate(0) translate(4 532.33)">
<title>ContextMapGraph</title>
<polygon fill="white" stroke="transparent" points="-4,4 -4,-532.33 834.07,-532.33 834.07,4 -4,4"/>
<!-- ContextoConsulta -->
<g id="node1" class="node">
<title>ContextoConsulta</title>
<polygon fill="none" stroke="black" stroke-width="2" points="272.84,-17.42 278.9,-19.49 284.66,-21.63 290.09,-23.83 295.16,-26.09 299.87,-28.39 304.17,-30.73 308.07,-33.09 311.54,-35.48 314.56,-37.88 317.12,-40.28 319.22,-42.69 320.84,-45.08 321.97,-47.45 322.62,-49.8 322.78,-52.12 322.45,-54.4 321.64,-56.64 320.34,-58.83 318.57,-60.97 316.34,-63.05 313.66,-65.06 310.53,-67.02 306.99,-68.9 303.03,-70.72 298.69,-72.45 293.98,-74.12 288.93,-75.7 283.55,-77.2 277.87,-78.62 271.92,-79.96 265.72,-81.21 259.3,-82.38 252.68,-83.46 245.89,-84.45 238.96,-85.36 231.9,-86.18 224.76,-86.92 217.55,-87.56 210.3,-88.12 203.04,-88.59 195.78,-88.97 188.56,-89.26 181.38,-89.46 174.28,-89.58 167.27,-89.6 160.37,-89.54 153.6,-89.38 146.97,-89.13 140.5,-88.8 134.2,-88.37 128.08,-87.85 122.16,-87.23 116.44,-86.53 110.93,-85.73 105.64,-84.84 100.57,-83.86 95.73,-82.78 91.13,-81.61 86.76,-80.36 82.63,-79.01 78.75,-77.57 75.11,-76.04 71.71,-74.42 68.57,-72.72 65.66,-70.94 63.01,-69.08 60.61,-67.14 58.45,-65.13 56.54,-63.06 54.88,-60.91 53.48,-58.71 52.32,-56.45 51.42,-54.15 50.77,-51.8 50.38,-49.41 50.24,-47 50.37,-44.56 50.76,-42.11 51.41,-39.65 52.33,-37.19 53.53,-34.74 55,-32.31 56.74,-29.91 58.77,-27.54 61.07,-25.21 63.66,-22.94 66.54,-20.73 69.7,-18.59 73.15,-16.53 76.89,-14.55 80.91,-12.67 85.22,-10.89 89.8,-9.22 94.66,-7.67 99.8,-6.25 105.19,-4.95 110.84,-3.78 116.74,-2.76 122.88,-1.88 129.24,-1.15 135.81,-0.57 142.57,-0.15 149.51,0.12 156.61,0.24 163.86,0.19 171.22,-0.01 178.68,-0.36 186.21,-0.87 193.8,-1.53 201.4,-2.33 209.01,-3.28 216.59,-4.37 224.11,-5.6 231.55,-6.95 238.88,-8.43 246.07,-10.02 253.08,-11.73 259.9,-13.53 266.49,-15.43 272.84,-17.42"/>
<text text-anchor="middle" x="176.07" y="-43.93" font-family="sans-serif" font-size="16.00">ContextoConsulta</text>
</g>
<!-- ContextoDistribucion -->
<g id="node2" class="node">
<title>ContextoDistribucion</title>
<polygon fill="none" stroke="black" stroke-width="2" points="66.13,-182.44 68.15,-179.62 70.57,-176.85 73.38,-174.13 76.57,-171.48 80.12,-168.91 84.03,-166.42 88.29,-164.04 92.88,-161.75 97.79,-159.59 103,-157.54 108.5,-155.63 114.28,-153.85 120.31,-152.21 126.59,-150.73 133.08,-149.39 139.79,-148.21 146.68,-147.18 153.74,-146.32 160.95,-145.61 168.3,-145.06 175.76,-144.67 183.31,-144.44 190.93,-144.36 198.61,-144.43 206.33,-144.66 214.06,-145.02 221.79,-145.52 229.49,-146.16 237.15,-146.93 244.75,-147.81 252.26,-148.82 259.68,-149.93 266.98,-151.14 274.13,-152.45 281.14,-153.84 287.97,-155.32 294.6,-156.87 301.03,-158.49 307.24,-160.16 313.2,-161.89 318.91,-163.67 324.34,-165.49 329.49,-167.35 334.34,-169.23 338.88,-171.14 343.08,-173.07 346.95,-175.01 350.48,-176.97 353.64,-178.93 356.43,-180.9 358.84,-182.87 360.87,-184.83 362.51,-186.8 363.75,-188.75 364.59,-190.7 365.02,-192.64 365.04,-194.57 364.64,-196.48 363.84,-198.38 362.63,-200.27 361,-202.13 358.97,-203.98 356.54,-205.82 353.7,-207.63 350.48,-209.42 346.87,-211.18 342.89,-212.92 338.54,-214.64 333.84,-216.32 328.79,-217.97 323.42,-219.58 317.73,-221.16 311.74,-222.69 305.46,-224.18 298.92,-225.62 292.13,-227 285.11,-228.33 277.89,-229.59 270.47,-230.78 262.88,-231.9 255.15,-232.93 247.29,-233.89 239.34,-234.75 231.3,-235.51 223.21,-236.18 215.09,-236.74 206.96,-237.18 198.85,-237.51 190.78,-237.71 182.78,-237.79 174.86,-237.73 167.06,-237.54 159.39,-237.22 151.87,-236.75 144.54,-236.14 137.41,-235.38 130.49,-234.48 123.82,-233.43 117.41,-232.24 111.28,-230.9 105.45,-229.42 99.93,-227.8 94.74,-226.05 89.89,-224.17 85.4,-222.16 81.28,-220.03 77.53,-217.78 74.18,-215.43 71.22,-212.98 68.67,-210.45 66.53,-207.83 64.8,-205.14 63.5,-202.4 62.61,-199.6 62.15,-196.77 62.11,-193.91 62.49,-191.03 63.29,-188.16 64.5,-185.29 66.13,-182.44"/>
<text text-anchor="middle" x="214.07" y="-188.28" font-family="sans-serif" font-size="16.00">ContextoDistribucion</text>
</g>
<!-- ContextoIngestion -->
<g id="node3" class="node">
<title>ContextoIngestion</title>
<polygon fill="none" stroke="black" stroke-width="2" points="369.2,-337.33 368.86,-334.46 368.89,-331.6 369.31,-328.77 370.1,-325.97 371.27,-323.22 372.82,-320.54 374.74,-317.92 377.02,-315.38 379.67,-312.94 382.68,-310.59 386.04,-308.34 389.73,-306.21 393.76,-304.2 398.11,-302.32 402.76,-300.56 407.71,-298.95 412.94,-297.47 418.43,-296.13 424.18,-294.94 430.16,-293.89 436.35,-292.99 442.75,-292.23 449.32,-291.62 456.05,-291.15 462.93,-290.82 469.93,-290.63 477.02,-290.58 484.2,-290.66 491.43,-290.86 498.7,-291.19 505.99,-291.63 513.27,-292.19 520.52,-292.85 527.72,-293.62 534.85,-294.48 541.89,-295.43 548.82,-296.47 555.62,-297.59 562.27,-298.78 568.75,-300.04 575.04,-301.37 581.13,-302.75 586.99,-304.19 592.62,-305.67 597.99,-307.21 603.09,-308.78 607.9,-310.4 612.43,-312.05 616.64,-313.73 620.54,-315.44 624.11,-317.18 627.34,-318.95 630.23,-320.74 632.77,-322.55 634.95,-324.38 636.78,-326.23 638.23,-328.1 639.32,-329.99 640.04,-331.89 640.39,-333.8 640.37,-335.73 639.99,-337.67 639.24,-339.61 638.13,-341.57 636.66,-343.53 634.84,-345.5 632.68,-347.47 630.17,-349.43 627.34,-351.4 624.18,-353.35 620.71,-355.3 616.94,-357.23 612.88,-359.14 608.53,-361.02 603.92,-362.88 599.04,-364.69 593.93,-366.47 588.58,-368.2 583.02,-369.88 577.26,-371.5 571.31,-373.05 565.19,-374.53 558.91,-375.92 552.49,-377.23 545.95,-378.44 539.31,-379.55 532.57,-380.55 525.76,-381.44 518.89,-382.21 511.99,-382.84 505.06,-383.35 498.13,-383.71 491.22,-383.93 484.33,-384.01 477.5,-383.93 470.73,-383.69 464.04,-383.31 457.46,-382.76 450.99,-382.05 444.66,-381.18 438.49,-380.16 432.48,-378.98 426.65,-377.64 421.03,-376.15 415.62,-374.52 410.44,-372.74 405.51,-370.83 400.84,-368.78 396.44,-366.61 392.33,-364.33 388.51,-361.94 385,-359.46 381.82,-356.88 378.96,-354.23 376.44,-351.52 374.27,-348.75 372.46,-345.93 371,-343.08 369.92,-340.21 369.2,-337.33"/>
<text text-anchor="middle" x="505.07" y="-332.49" font-family="sans-serif" font-size="16.00">ContextoIngestion</text>
</g>
<!-- ContextoIngestion&#45;&gt;ContextoDistribucion -->
<g id="edge2" class="edge">
<title>ContextoIngestion&#45;&gt;ContextoDistribucion</title>
<path fill="none" stroke="black" stroke-width="2" d="M411.92,-297.57C392.3,-289.1 371.87,-279.89 353.07,-270.68 327.63,-258.22 300.28,-243.3 276.62,-229.88"/>
<text text-anchor="middle" x="428.57" y="-261.08" font-family="sans-serif" font-size="12.00"> &#160;&#160;&#160;&#160;&#160;&#160;&#160;&#160;&#160;&#160;&#160;&#160;&#160;&#160;&#160;&#160;&#160;&#160;&#160;&#160;&#160;&#160;&#160;&#160;&#160;&#160;&#160;&#160;&#160;&#160;&#160;&#160;&#160;&#160;&#160;&#160;&#160;&#160;&#160;</text>
<polygon fill="white" stroke="transparent" points="253.62,-219.88 253.62,-238.88 269.62,-238.88 269.62,-219.88 253.62,-219.88"/>
<polyline fill="none" stroke="black" points="269.62,-219.88 269.62,-238.88 "/>
<text text-anchor="start" x="256.62" y="-226.28" font-family="sans-serif" font-size="12.00">D</text>
<polygon fill="white" stroke="transparent" points="269.62,-219.88 269.62,-238.88 299.62,-238.88 299.62,-219.88 269.62,-219.88"/>
<polygon fill="none" stroke="black" points="269.62,-219.88 269.62,-238.88 299.62,-238.88 299.62,-219.88 269.62,-219.88"/>
<text text-anchor="start" x="272.62" y="-226.28" font-family="sans-serif" font-size="12.00">ACL</text>
<polygon fill="white" stroke="transparent" points="404.92,-288.57 404.92,-305.57 418.92,-305.57 418.92,-288.57 404.92,-288.57"/>
<text text-anchor="start" x="406.92" y="-293.97" font-family="sans-serif" font-size="12.00">U</text>
</g>
<!-- ContextoProcesamiento -->
<g id="node4" class="node">
<title>ContextoProcesamiento</title>
<polygon fill="none" stroke="black" stroke-width="2" points="651.48,-153.74 661.02,-155.13 670.27,-156.61 679.2,-158.19 687.77,-159.85 695.94,-161.6 703.67,-163.41 710.95,-165.3 717.73,-167.24 724,-169.24 729.72,-171.29 734.88,-173.38 739.46,-175.51 743.43,-177.67 746.8,-179.85 749.55,-182.05 751.67,-184.26 753.17,-186.48 754.04,-188.69 754.28,-190.91 753.9,-193.11 752.91,-195.3 751.33,-197.47 749.16,-199.61 746.43,-201.73 743.15,-203.81 739.35,-205.86 735.04,-207.86 730.26,-209.81 725.03,-211.72 719.38,-213.58 713.34,-215.37 706.94,-217.11 700.21,-218.79 693.18,-220.39 685.88,-221.93 678.34,-223.4 670.6,-224.79 662.68,-226.11 654.61,-227.34 646.44,-228.5 638.17,-229.56 629.84,-230.54 621.47,-231.43 613.09,-232.23 604.73,-232.93 596.4,-233.54 588.12,-234.04 579.91,-234.45 571.79,-234.75 563.78,-234.96 555.88,-235.05 548.11,-235.04 540.48,-234.92 533,-234.69 525.69,-234.35 518.53,-233.91 511.55,-233.35 504.75,-232.68 498.14,-231.9 491.71,-231.01 485.47,-230.01 479.42,-228.9 473.58,-227.69 467.93,-226.37 462.5,-224.95 457.27,-223.43 452.25,-221.81 447.45,-220.1 442.87,-218.3 438.52,-216.41 434.4,-214.44 430.53,-212.4 426.9,-210.28 423.54,-208.1 420.43,-205.86 417.61,-203.57 415.07,-201.22 412.83,-198.84 410.9,-196.43 409.3,-193.99 408.03,-191.54 407.1,-189.07 406.54,-186.61 406.35,-184.15 406.54,-181.7 407.14,-179.28 408.14,-176.89 409.57,-174.54 411.42,-172.23 413.71,-169.98 416.45,-167.8 419.65,-165.68 423.3,-163.64 427.4,-161.69 431.97,-159.83 437,-158.06 442.49,-156.41 448.42,-154.86 454.8,-153.42 461.6,-152.11 468.83,-150.92 476.46,-149.86 484.47,-148.93 492.85,-148.13 501.56,-147.47 510.6,-146.95 519.92,-146.56 529.5,-146.32 539.31,-146.21 549.31,-146.24 559.46,-146.41 569.74,-146.72 580.1,-147.16 590.5,-147.74 600.9,-148.44 611.26,-149.26 621.54,-150.21 631.7,-151.28 641.69,-152.45 651.48,-153.74"/>
<text text-anchor="middle" x="569.07" y="-188.28" font-family="sans-serif" font-size="16.00">ContextoProcesamiento</text>
</g>
<!-- ContextoIngestion&#45;&gt;ContextoProcesamiento -->
<g id="edge1" class="edge">
<title>ContextoIngestion&#45;&gt;ContextoProcesamiento</title>
<path fill="none" stroke="black" stroke-width="2" d="M504.22,-291.4C505.28,-280.07 507.58,-268.12 512.07,-257.68 515.56,-249.58 520.47,-241.78 525.96,-234.57"/>
<text text-anchor="middle" x="587.57" y="-261.08" font-family="sans-serif" font-size="12.00"> &#160;&#160;&#160;&#160;&#160;&#160;&#160;&#160;&#160;&#160;&#160;&#160;&#160;&#160;&#160;&#160;&#160;&#160;&#160;&#160;&#160;&#160;&#160;&#160;&#160;&#160;&#160;&#160;&#160;&#160;&#160;&#160;&#160;&#160;&#160;&#160;&#160;&#160;&#160;</text>
<polygon fill="white" stroke="transparent" points="502.96,-224.57 502.96,-243.57 518.96,-243.57 518.96,-224.57 502.96,-224.57"/>
<polyline fill="none" stroke="black" points="518.96,-224.57 518.96,-243.57 "/>
<text text-anchor="start" x="505.96" y="-230.97" font-family="sans-serif" font-size="12.00">D</text>
<polygon fill="white" stroke="transparent" points="518.96,-224.57 518.96,-243.57 548.96,-243.57 548.96,-224.57 518.96,-224.57"/>
<polygon fill="none" stroke="black" points="518.96,-224.57 518.96,-243.57 548.96,-243.57 548.96,-224.57 518.96,-224.57"/>
<text text-anchor="start" x="521.96" y="-230.97" font-family="sans-serif" font-size="12.00">ACL</text>
<polygon fill="white" stroke="transparent" points="497.22,-282.4 497.22,-299.4 511.22,-299.4 511.22,-282.4 497.22,-282.4"/>
<text text-anchor="start" x="499.22" y="-287.8" font-family="sans-serif" font-size="12.00">U</text>
</g>
<!-- ContextoProcesamiento&#45;&gt;ContextoConsulta -->
<g id="edge3" class="edge">
<title>ContextoProcesamiento&#45;&gt;ContextoConsulta</title>
<path fill="none" stroke="black" stroke-width="2" d="M461.42,-152.09C400.06,-129.86 324.07,-102.34 265.93,-81.28"/>
<text text-anchor="middle" x="460.57" y="-116.87" font-family="sans-serif" font-size="12.00"> &#160;&#160;&#160;&#160;&#160;&#160;&#160;&#160;&#160;&#160;&#160;&#160;&#160;&#160;&#160;&#160;&#160;&#160;&#160;&#160;&#160;&#160;&#160;&#160;&#160;&#160;&#160;&#160;&#160;&#160;&#160;&#160;&#160;&#160;&#160;&#160;&#160;&#160;&#160;</text>
<polygon fill="white" stroke="transparent" points="242.93,-71.28 242.93,-90.28 258.93,-90.28 258.93,-71.28 242.93,-71.28"/>
<polyline fill="none" stroke="black" points="258.93,-71.28 258.93,-90.28 "/>
<text text-anchor="start" x="245.93" y="-77.68" font-family="sans-serif" font-size="12.00">D</text>
<polygon fill="white" stroke="transparent" points="258.93,-71.28 258.93,-90.28 288.93,-90.28 288.93,-71.28 258.93,-71.28"/>
<polygon fill="none" stroke="black" points="258.93,-71.28 258.93,-90.28 288.93,-90.28 288.93,-71.28 258.93,-71.28"/>
<text text-anchor="start" x="261.93" y="-77.68" font-family="sans-serif" font-size="12.00">ACL</text>
<polygon fill="white" stroke="transparent" points="454.42,-143.09 454.42,-160.09 468.42,-160.09 468.42,-143.09 454.42,-143.09"/>
<text text-anchor="start" x="456.42" y="-148.49" font-family="sans-serif" font-size="12.00">U</text>
</g>
<!-- ContextoSeguridad -->
<g id="node5" class="node">
<title>ContextoSeguridad</title>
<polygon fill="none" stroke="black" stroke-width="2" points="209.81,-482.43 209.29,-479.55 209.16,-476.68 209.44,-473.84 210.11,-471.04 211.18,-468.28 212.65,-465.58 214.51,-462.94 216.76,-460.39 219.4,-457.92 222.42,-455.55 225.81,-453.28 229.56,-451.12 233.66,-449.09 238.11,-447.17 242.89,-445.39 247.98,-443.74 253.37,-442.23 259.05,-440.86 265,-439.63 271.21,-438.55 277.64,-437.61 284.3,-436.81 291.15,-436.16 298.18,-435.66 305.36,-435.29 312.68,-435.06 320.11,-434.96 327.63,-435 335.22,-435.16 342.85,-435.45 350.51,-435.85 358.17,-436.37 365.8,-437 373.39,-437.72 380.91,-438.55 388.34,-439.46 395.65,-440.46 402.84,-441.54 409.87,-442.7 416.73,-443.93 423.39,-445.22 429.85,-446.57 436.07,-447.98 442.04,-449.44 447.76,-450.94 453.19,-452.49 458.33,-454.08 463.16,-455.71 467.67,-457.38 471.85,-459.07 475.68,-460.79 479.17,-462.54 482.3,-464.32 485.06,-466.12 487.45,-467.94 489.46,-469.79 491.09,-471.65 492.34,-473.54 493.2,-475.44 493.68,-477.35 493.77,-479.28 493.47,-481.23 492.8,-483.18 491.74,-485.15 490.32,-487.13 488.52,-489.11 486.37,-491.09 483.86,-493.08 481,-495.06 477.8,-497.04 474.28,-499.01 470.43,-500.96 466.28,-502.9 461.84,-504.81 457.11,-506.7 452.11,-508.55 446.85,-510.36 441.35,-512.12 435.62,-513.84 429.67,-515.49 423.53,-517.08 417.2,-518.59 410.7,-520.03 404.06,-521.37 397.27,-522.62 390.37,-523.78 383.37,-524.82 376.29,-525.75 369.14,-526.55 361.94,-527.23 354.72,-527.77 347.48,-528.18 340.25,-528.44 333.04,-528.55 325.88,-528.51 318.77,-528.32 311.75,-527.96 304.82,-527.45 298.01,-526.78 291.33,-525.95 284.8,-524.95 278.44,-523.8 272.26,-522.5 266.29,-521.04 260.53,-519.43 255.01,-517.68 249.73,-515.79 244.72,-513.77 239.99,-511.62 235.56,-509.36 231.42,-506.98 227.61,-504.51 224.13,-501.95 220.99,-499.31 218.2,-496.6 215.77,-493.84 213.71,-491.03 212.02,-488.18 210.72,-485.31 209.81,-482.43"/>
<text text-anchor="middle" x="352.07" y="-476.82" font-family="sans-serif" font-size="16.00">ContextoSeguridad</text>
</g>
<!-- ContextoSeguridad&#45;&gt;ContextoConsulta -->
<g id="edge4" class="edge">
<title>ContextoSeguridad&#45;&gt;ContextoConsulta</title>
<path fill="none" stroke="black" stroke-width="2" d="M249.04,-443.38C174.97,-411.01 81.34,-355.43 41.07,-270.68 27.38,-241.86 -50.25,-330.28 53.07,-144.47 66.22,-120.82 87.87,-101.04 109.36,-85.71"/>
<text text-anchor="middle" x="116.57" y="-261.08" font-family="sans-serif" font-size="12.00"> &#160;&#160;&#160;&#160;&#160;&#160;&#160;&#160;&#160;&#160;&#160;&#160;&#160;&#160;&#160;&#160;&#160;&#160;&#160;&#160;&#160;&#160;&#160;&#160;&#160;&#160;&#160;&#160;&#160;&#160;&#160;&#160;&#160;&#160;&#160;&#160;&#160;&#160;&#160;</text>
<polygon fill="white" stroke="transparent" points="102.36,-76.71 102.36,-93.71 116.36,-93.71 116.36,-76.71 102.36,-76.71"/>
<text text-anchor="start" x="104.36" y="-82.11" font-family="sans-serif" font-size="12.00">D</text>
<polygon fill="white" stroke="transparent" points="242.04,-434.38 242.04,-451.38 256.04,-451.38 256.04,-434.38 242.04,-434.38"/>
<text text-anchor="start" x="244.04" y="-439.78" font-family="sans-serif" font-size="12.00">U</text>
</g>
<!-- ContextoSeguridad&#45;&gt;ContextoDistribucion -->
<g id="edge5" class="edge">
<title>ContextoSeguridad&#45;&gt;ContextoDistribucion</title>
<path fill="none" stroke="black" stroke-width="2" d="M263.77,-439.77C241.99,-425.43 221.38,-406.96 209.07,-383.9 184.87,-338.59 191.81,-278.19 201.05,-237.59"/>
<text text-anchor="middle" x="284.57" y="-333.19" font-family="sans-serif" font-size="12.00"> &#160;&#160;&#160;&#160;&#160;&#160;&#160;&#160;&#160;&#160;&#160;&#160;&#160;&#160;&#160;&#160;&#160;&#160;&#160;&#160;&#160;&#160;&#160;&#160;&#160;&#160;&#160;&#160;&#160;&#160;&#160;&#160;&#160;&#160;&#160;&#160;&#160;&#160;&#160;</text>
<polygon fill="white" stroke="transparent" points="194.05,-228.59 194.05,-245.59 208.05,-245.59 208.05,-228.59 194.05,-228.59"/>
<text text-anchor="start" x="196.05" y="-233.99" font-family="sans-serif" font-size="12.00">D</text>
<polygon fill="white" stroke="transparent" points="256.77,-430.77 256.77,-447.77 270.77,-447.77 270.77,-430.77 256.77,-430.77"/>
<text text-anchor="start" x="258.77" y="-436.17" font-family="sans-serif" font-size="12.00">U</text>
</g>
<!-- ContextoSeguridad&#45;&gt;ContextoIngestion -->
<g id="edge7" class="edge">
<title>ContextoSeguridad&#45;&gt;ContextoIngestion</title>
<path fill="none" stroke="black" stroke-width="2" d="M394.69,-439.97C413.79,-422.2 436.42,-401.15 456.2,-382.75"/>
<text text-anchor="middle" x="509.57" y="-405.3" font-family="sans-serif" font-size="12.00"> &#160;&#160;&#160;&#160;&#160;&#160;&#160;&#160;&#160;&#160;&#160;&#160;&#160;&#160;&#160;&#160;&#160;&#160;&#160;&#160;&#160;&#160;&#160;&#160;&#160;&#160;&#160;&#160;&#160;&#160;&#160;&#160;&#160;&#160;&#160;&#160;&#160;&#160;&#160;</text>
<polygon fill="white" stroke="transparent" points="449.2,-373.75 449.2,-390.75 463.2,-390.75 463.2,-373.75 449.2,-373.75"/>
<text text-anchor="start" x="451.2" y="-379.15" font-family="sans-serif" font-size="12.00">D</text>
<polygon fill="white" stroke="transparent" points="387.69,-430.97 387.69,-447.97 401.69,-447.97 401.69,-430.97 387.69,-430.97"/>
<text text-anchor="start" x="389.69" y="-436.37" font-family="sans-serif" font-size="12.00">U</text>
</g>
<!-- ContextoSeguridad&#45;&gt;ContextoProcesamiento -->
<g id="edge6" class="edge">
<title>ContextoSeguridad&#45;&gt;ContextoProcesamiento</title>
<path fill="none" stroke="black" stroke-width="2" d="M468,-457.43C542.2,-440.55 628.47,-414.96 650.07,-383.9 682.26,-337.59 689.33,-307.59 663.07,-257.68 657.35,-246.82 648.89,-237.43 639.35,-229.43"/>
<text text-anchor="middle" x="754.57" y="-333.19" font-family="sans-serif" font-size="12.00"> &#160;&#160;&#160;&#160;&#160;&#160;&#160;&#160;&#160;&#160;&#160;&#160;&#160;&#160;&#160;&#160;&#160;&#160;&#160;&#160;&#160;&#160;&#160;&#160;&#160;&#160;&#160;&#160;&#160;&#160;&#160;&#160;&#160;&#160;&#160;&#160;&#160;&#160;&#160;</text>
<polygon fill="white" stroke="transparent" points="632.35,-220.43 632.35,-237.43 646.35,-237.43 646.35,-220.43 632.35,-220.43"/>
<text text-anchor="start" x="634.35" y="-225.83" font-family="sans-serif" font-size="12.00">D</text>
<polygon fill="white" stroke="transparent" points="461,-448.43 461,-465.43 475,-465.43 475,-448.43 461,-448.43"/>
<text text-anchor="start" x="463" y="-453.83" font-family="sans-serif" font-size="12.00">U</text>
</g>
</g>
</svg>
